<svg width="1318" height="701" viewBox="0 0 1318 701" fill="none" xmlns="http://www.w3.org/2000/svg">
<path d="M0.774 0.47H2.43V2H0.774V0.47ZM37.3013 0.47H38.9573V2H37.3013V0.47ZM73.8287 0.47H75.4847V2H73.8287V0.47ZM110.356 0.47H112.012V2H110.356V0.47ZM146.883 0.47H148.539V2H146.883V0.47ZM183.411 0.47H185.067V2H183.411V0.47ZM219.938 0.47H221.594V2H219.938V0.47ZM256.465 0.47H258.121V2H256.465V0.47ZM292.993 0.47H294.649V2H292.993V0.47ZM329.52 0.47H331.176V2H329.52V0.47ZM366.047 0.47H367.703V2H366.047V0.47ZM402.575 0.47H404.231V2H402.575V0.47ZM439.102 0.47H440.758V2H439.102V0.47ZM475.629 0.47H477.285V2H475.629V0.47ZM512.157 0.47H513.813V2H512.157V0.47ZM548.684 0.47H550.34V2H548.684V0.47ZM585.212 0.47H586.868V2H585.212V0.47ZM621.739 0.47H623.395V2H621.739V0.47ZM658.266 0.47H659.922V2H658.266V0.47ZM694.794 0.47H696.45V2H694.794V0.47ZM731.321 0.47H732.977V2H731.321V0.47ZM767.848 0.47H769.504V2H767.848V0.47ZM804.376 0.47H806.032V2H804.376V0.47ZM840.903 0.47H842.559V2H840.903V0.47ZM877.43 0.47H879.086V2H877.43V0.47ZM913.958 0.47H915.614V2H913.958V0.47ZM950.485 0.47H952.141V2H950.485V0.47ZM987.012 0.47H988.668V2H987.012V0.47ZM1023.54 0.47H1025.2V2H1023.54V0.47ZM1060.07 0.47H1061.72V2H1060.07V0.47ZM1096.59 0.47H1098.25V2H1096.59V0.47ZM1133.12 0.47H1134.78V2H1133.12V0.47ZM1169.65 0.47H1171.31V2H1169.65V0.47ZM1206.18 0.47H1207.83V2H1206.18V0.47ZM1242.7 0.47H1244.36V2H1242.7V0.47ZM1279.23 0.47H1280.89V2H1279.23V0.47ZM1315.76 0.47H1317.41V2H1315.76V0.47ZM0.774 35.47H2.43V37H0.774V35.47ZM146.883 35.47H148.539V37H146.883V35.47ZM183.411 35.47H185.067V37H183.411V35.47ZM219.938 35.47H221.594V37H219.938V35.47ZM256.465 35.47H258.121V37H256.465V35.47ZM292.993 35.47H294.649V37H292.993V35.47ZM329.52 35.47H331.176V37H329.52V35.47ZM366.047 35.47H367.703V37H366.047V35.47ZM402.575 35.47H404.231V37H402.575V35.47ZM439.102 35.47H440.758V37H439.102V35.47ZM475.629 35.47H477.285V37H475.629V35.47ZM548.684 35.47H550.34V37H548.684V35.47ZM585.212 35.47H586.868V37H585.212V35.47ZM621.739 35.47H623.395V37H621.739V35.47ZM658.266 35.47H659.922V37H658.266V35.47ZM694.794 35.47H696.45V37H694.794V35.47ZM731.321 35.47H732.977V37H731.321V35.47ZM767.848 35.47H769.504V37H767.848V35.47ZM804.376 35.47H806.032V37H804.376V35.47ZM913.958 35.47H915.614V37H913.958V35.47ZM1023.54 35.47H1025.2V37H1023.54V35.47ZM1096.59 35.47H1098.25V37H1096.59V35.47ZM1242.7 35.47H1244.36V37H1242.7V35.47ZM1279.23 35.47H1280.89V37H1279.23V35.47ZM1315.76 35.47H1317.41V37H1315.76V35.47ZM0.774 70.47H2.43V72H0.774V70.47ZM37.3013 70.47H38.9573V72H37.3013V70.47ZM73.8287 70.47H75.4847V72H73.8287V70.47ZM110.356 70.47H112.012V72H110.356V70.47ZM146.883 70.47H148.539V72H146.883V70.47ZM219.938 70.47H221.594V72H219.938V70.47ZM256.465 70.47H258.121V72H256.465V70.47ZM292.993 70.47H294.649V72H292.993V70.47ZM329.52 70.47H331.176V72H329.52V70.47ZM366.047 70.47H367.703V72H366.047V70.47ZM402.575 70.47H404.231V72H402.575V70.47ZM439.102 70.47H440.758V72H439.102V70.47ZM475.629 70.47H477.285V72H475.629V70.47ZM512.157 70.47H513.813V72H512.157V70.47ZM548.684 70.47H550.34V72H548.684V70.47ZM585.212 70.47H586.868V72H585.212V70.47ZM621.739 70.47H623.395V72H621.739V70.47ZM658.266 70.47H659.922V72H658.266V70.47ZM694.794 70.47H696.45V72H694.794V70.47ZM731.321 70.47H732.977V72H731.321V70.47ZM913.958 70.47H915.614V72H913.958V70.47ZM950.485 70.47H952.141V72H950.485V70.47ZM987.012 70.47H988.668V72H987.012V70.47ZM1023.54 70.47H1025.2V72H1023.54V70.47ZM1060.07 70.47H1061.72V72H1060.07V70.47ZM1096.59 70.47H1098.25V72H1096.59V70.47ZM1133.12 70.47H1134.78V72H1133.12V70.47ZM1169.65 70.47H1171.31V72H1169.65V70.47ZM1206.18 70.47H1207.83V72H1206.18V70.47ZM1242.7 70.47H1244.36V72H1242.7V70.47ZM1279.23 70.47H1280.89V72H1279.23V70.47ZM1315.76 70.47H1317.41V72H1315.76V70.47ZM0.774 105.47H2.43V107H0.774V105.47ZM37.3013 105.47H38.9573V107H37.3013V105.47ZM73.8287 105.47H75.4847V107H73.8287V105.47ZM110.356 105.47H112.012V107H110.356V105.47ZM146.883 105.47H148.539V107H146.883V105.47ZM183.411 105.47H185.067V107H183.411V105.47ZM219.938 105.47H221.594V107H219.938V105.47ZM256.465 105.47H258.121V107H256.465V105.47ZM292.993 105.47H294.649V107H292.993V105.47ZM402.575 105.47H404.231V107H402.575V105.47ZM439.102 105.47H440.758V107H439.102V105.47ZM475.629 105.47H477.285V107H475.629V105.47ZM512.157 105.47H513.813V107H512.157V105.47ZM548.684 105.47H550.34V107H548.684V105.47ZM585.212 105.47H586.868V107H585.212V105.47ZM621.739 105.47H623.395V107H621.739V105.47ZM658.266 105.47H659.922V107H658.266V105.47ZM694.794 105.47H696.45V107H694.794V105.47ZM731.321 105.47H732.977V107H731.321V105.47ZM767.848 105.47H769.504V107H767.848V105.47ZM804.376 105.47H806.032V107H804.376V105.47ZM840.903 105.47H842.559V107H840.903V105.47ZM877.43 105.47H879.086V107H877.43V105.47ZM913.958 105.47H915.614V107H913.958V105.47ZM950.485 105.47H952.141V107H950.485V105.47ZM987.012 105.47H988.668V107H987.012V105.47ZM1023.54 105.47H1025.2V107H1023.54V105.47ZM1060.07 105.47H1061.72V107H1060.07V105.47ZM1096.59 105.47H1098.25V107H1096.59V105.47ZM1133.12 105.47H1134.78V107H1133.12V105.47ZM1169.65 105.47H1171.31V107H1169.65V105.47ZM1206.18 105.47H1207.83V107H1206.18V105.47ZM1242.7 105.47H1244.36V107H1242.7V105.47ZM1279.23 105.47H1280.89V107H1279.23V105.47ZM1315.76 105.47H1317.41V107H1315.76V105.47ZM0.774 140.47H2.43V142H0.774V140.47ZM37.3013 140.47H38.9573V142H37.3013V140.47ZM73.8287 140.47H75.4847V142H73.8287V140.47ZM110.356 140.47H112.012V142H110.356V140.47ZM146.883 140.47H148.539V142H146.883V140.47ZM183.411 140.47H185.067V142H183.411V140.47ZM219.938 140.47H221.594V142H219.938V140.47ZM256.465 140.47H258.121V142H256.465V140.47ZM292.993 140.47H294.649V142H292.993V140.47ZM402.575 140.47H404.231V142H402.575V140.47ZM439.102 140.47H440.758V142H439.102V140.47ZM475.629 140.47H477.285V142H475.629V140.47ZM512.157 140.47H513.813V142H512.157V140.47ZM548.684 140.47H550.34V142H548.684V140.47ZM585.212 140.47H586.868V142H585.212V140.47ZM621.739 140.47H623.395V142H621.739V140.47ZM658.266 140.47H659.922V142H658.266V140.47ZM694.794 140.47H696.45V142H694.794V140.47ZM731.321 140.47H732.977V142H731.321V140.47ZM767.848 140.47H769.504V142H767.848V140.47ZM804.376 140.47H806.032V142H804.376V140.47ZM840.903 140.47H842.559V142H840.903V140.47ZM877.43 140.47H879.086V142H877.43V140.47ZM1096.59 140.47H1098.25V142H1096.59V140.47ZM1169.65 140.47H1171.31V142H1169.65V140.47ZM1206.18 140.47H1207.83V142H1206.18V140.47ZM1242.7 140.47H1244.36V142H1242.7V140.47ZM1279.23 140.47H1280.89V142H1279.23V140.47ZM1315.76 140.47H1317.41V142H1315.76V140.47ZM0.774 175.47H2.43V177H0.774V175.47ZM256.465 175.47H258.121V177H256.465V175.47ZM292.993 175.47H294.649V177H292.993V175.47ZM329.52 175.47H331.176V177H329.52V175.47ZM366.047 175.47H367.703V177H366.047V175.47ZM402.575 175.47H404.231V177H402.575V175.47ZM439.102 175.47H440.758V177H439.102V175.47ZM475.629 175.47H477.285V177H475.629V175.47ZM512.157 175.47H513.813V177H512.157V175.47ZM548.684 175.47H550.34V177H548.684V175.47ZM585.212 175.47H586.868V177H585.212V175.47ZM621.739 175.47H623.395V177H621.739V175.47ZM658.266 175.47H659.922V177H658.266V175.47ZM694.794 175.47H696.45V177H694.794V175.47ZM731.321 175.47H732.977V177H731.321V175.47ZM767.848 175.47H769.504V177H767.848V175.47ZM804.376 175.47H806.032V177H804.376V175.47ZM840.903 175.47H842.559V177H840.903V175.47ZM877.43 175.47H879.086V177H877.43V175.47ZM913.958 175.47H915.614V177H913.958V175.47ZM950.485 175.47H952.141V177H950.485V175.47ZM987.012 175.47H988.668V177H987.012V175.47ZM1023.54 175.47H1025.2V177H1023.54V175.47ZM1096.59 175.47H1098.25V177H1096.59V175.47ZM1169.65 175.47H1171.31V177H1169.65V175.47ZM1206.18 175.47H1207.83V177H1206.18V175.47ZM1242.7 175.47H1244.36V177H1242.7V175.47ZM1279.23 175.47H1280.89V177H1279.23V175.47ZM1315.76 175.47H1317.41V177H1315.76V175.47ZM0.774 210.47H2.43V212H0.774V210.47ZM219.938 210.47H221.594V212H219.938V210.47ZM256.465 210.47H258.121V212H256.465V210.47ZM292.993 210.47H294.649V212H292.993V210.47ZM329.52 210.47H331.176V212H329.52V210.47ZM366.047 210.47H367.703V212H366.047V210.47ZM439.102 210.47H440.758V212H439.102V210.47ZM475.629 210.47H477.285V212H475.629V210.47ZM512.157 210.47H513.813V212H512.157V210.47ZM548.684 210.47H550.34V212H548.684V210.47ZM585.212 210.47H586.868V212H585.212V210.47ZM621.739 210.47H623.395V212H621.739V210.47ZM658.266 210.47H659.922V212H658.266V210.47ZM694.794 210.47H696.45V212H694.794V210.47ZM731.321 210.47H732.977V212H731.321V210.47ZM767.848 210.47H769.504V212H767.848V210.47ZM804.376 210.47H806.032V212H804.376V210.47ZM840.903 210.47H842.559V212H840.903V210.47ZM877.43 210.47H879.086V212H877.43V210.47ZM913.958 210.47H915.614V212H913.958V210.47ZM950.485 210.47H952.141V212H950.485V210.47ZM987.012 210.47H988.668V212H987.012V210.47ZM1023.54 210.47H1025.2V212H1023.54V210.47ZM1096.59 210.47H1098.25V212H1096.59V210.47ZM1169.65 210.47H1171.31V212H1169.65V210.47ZM1206.18 210.47H1207.83V212H1206.18V210.47ZM1242.7 210.47H1244.36V212H1242.7V210.47ZM1279.23 210.47H1280.89V212H1279.23V210.47ZM1315.76 210.47H1317.41V212H1315.76V210.47ZM0.774 245.47H2.43V247H0.774V245.47ZM475.629 245.47H477.285V247H475.629V245.47ZM512.157 245.47H513.813V247H512.157V245.47ZM548.684 245.47H550.34V247H548.684V245.47ZM585.212 245.47H586.868V247H585.212V245.47ZM621.739 245.47H623.395V247H621.739V245.47ZM658.266 245.47H659.922V247H658.266V245.47ZM694.794 245.47H696.45V247H694.794V245.47ZM731.321 245.47H732.977V247H731.321V245.47ZM767.848 245.47H769.504V247H767.848V245.47ZM804.376 245.47H806.032V247H804.376V245.47ZM840.903 245.47H842.559V247H840.903V245.47ZM877.43 245.47H879.086V247H877.43V245.47ZM913.958 245.47H915.614V247H913.958V245.47ZM950.485 245.47H952.141V247H950.485V245.47ZM987.012 245.47H988.668V247H987.012V245.47ZM1023.54 245.47H1025.2V247H1023.54V245.47ZM1096.59 245.47H1098.25V247H1096.59V245.47ZM1133.12 245.47H1134.78V247H1133.12V245.47ZM1169.65 245.47H1171.31V247H1169.65V245.47ZM1206.18 245.47H1207.83V247H1206.18V245.47ZM1242.7 245.47H1244.36V247H1242.7V245.47ZM1279.23 245.47H1280.89V247H1279.23V245.47ZM1315.76 245.47H1317.41V247H1315.76V245.47ZM0.774 280.47H2.43V282H0.774V280.47ZM475.629 280.47H477.285V282H475.629V280.47ZM512.157 280.47H513.813V282H512.157V280.47ZM548.684 280.47H550.34V282H548.684V280.47ZM585.212 280.47H586.868V282H585.212V280.47ZM621.739 280.47H623.395V282H621.739V280.47ZM658.266 280.47H659.922V282H658.266V280.47ZM694.794 280.47H696.45V282H694.794V280.47ZM731.321 280.47H732.977V282H731.321V280.47ZM767.848 280.47H769.504V282H767.848V280.47ZM804.376 280.47H806.032V282H804.376V280.47ZM840.903 280.47H842.559V282H840.903V280.47ZM877.43 280.47H879.086V282H877.43V280.47ZM913.958 280.47H915.614V282H913.958V280.47ZM987.012 280.47H988.668V282H987.012V280.47ZM1023.54 280.47H1025.2V282H1023.54V280.47ZM1060.07 280.47H1061.72V282H1060.07V280.47ZM1096.59 280.47H1098.25V282H1096.59V280.47ZM1133.12 280.47H1134.78V282H1133.12V280.47ZM1169.65 280.47H1171.31V282H1169.65V280.47ZM1206.18 280.47H1207.83V282H1206.18V280.47ZM1242.7 280.47H1244.36V282H1242.7V280.47ZM1279.23 280.47H1280.89V282H1279.23V280.47ZM1315.76 280.47H1317.41V282H1315.76V280.47ZM0.774 315.47H2.43V317H0.774V315.47ZM512.157 315.47H513.813V317H512.157V315.47ZM548.684 315.47H550.34V317H548.684V315.47ZM585.212 315.47H586.868V317H585.212V315.47ZM621.739 315.47H623.395V317H621.739V315.47ZM694.794 315.47H696.45V317H694.794V315.47ZM731.321 315.47H732.977V317H731.321V315.47ZM767.848 315.47H769.504V317H767.848V315.47ZM804.376 315.47H806.032V317H804.376V315.47ZM840.903 315.47H842.559V317H840.903V315.47ZM877.43 315.47H879.086V317H877.43V315.47ZM913.958 315.47H915.614V317H913.958V315.47ZM950.485 315.47H952.141V317H950.485V315.47ZM987.012 315.47H988.668V317H987.012V315.47ZM1023.54 315.47H1025.2V317H1023.54V315.47ZM1060.07 315.47H1061.72V317H1060.07V315.47ZM1096.59 315.47H1098.25V317H1096.59V315.47ZM1133.12 315.47H1134.78V317H1133.12V315.47ZM1169.65 315.47H1171.31V317H1169.65V315.47ZM1206.18 315.47H1207.83V317H1206.18V315.47ZM1242.7 315.47H1244.36V317H1242.7V315.47ZM1279.23 315.47H1280.89V317H1279.23V315.47ZM1315.76 315.47H1317.41V317H1315.76V315.47ZM0.774 350.47H2.43V352H0.774V350.47ZM146.883 350.47H148.539V352H146.883V350.47ZM475.629 350.47H477.285V352H475.629V350.47ZM512.157 350.47H513.813V352H512.157V350.47ZM548.684 350.47H550.34V352H548.684V350.47ZM585.212 350.47H586.868V352H585.212V350.47ZM621.739 350.47H623.395V352H621.739V350.47ZM658.266 350.47H659.922V352H658.266V350.47ZM694.794 350.47H696.45V352H694.794V350.47ZM731.321 350.47H732.977V352H731.321V350.47ZM767.848 350.47H769.504V352H767.848V350.47ZM804.376 350.47H806.032V352H804.376V350.47ZM840.903 350.47H842.559V352H840.903V350.47ZM877.43 350.47H879.086V352H877.43V350.47ZM1023.54 350.47H1025.2V352H1023.54V350.47ZM1060.07 350.47H1061.72V352H1060.07V350.47ZM1096.59 350.47H1098.25V352H1096.59V350.47ZM1133.12 350.47H1134.78V352H1133.12V350.47ZM1169.65 350.47H1171.31V352H1169.65V350.47ZM1206.18 350.47H1207.83V352H1206.18V350.47ZM1242.7 350.47H1244.36V352H1242.7V350.47ZM1315.76 350.47H1317.41V352H1315.76V350.47ZM0.774 385.47H2.43V387H0.774V385.47ZM37.3013 385.47H38.9573V387H37.3013V385.47ZM73.8287 385.47H75.4847V387H73.8287V385.47ZM110.356 385.47H112.012V387H110.356V385.47ZM146.883 385.47H148.539V387H146.883V385.47ZM183.411 385.47H185.067V387H183.411V385.47ZM219.938 385.47H221.594V387H219.938V385.47ZM256.465 385.47H258.121V387H256.465V385.47ZM292.993 385.47H294.649V387H292.993V385.47ZM329.52 385.47H331.176V387H329.52V385.47ZM402.575 385.47H404.231V387H402.575V385.47ZM439.102 385.47H440.758V387H439.102V385.47ZM475.629 385.47H477.285V387H475.629V385.47ZM512.157 385.47H513.813V387H512.157V385.47ZM548.684 385.47H550.34V387H548.684V385.47ZM585.212 385.47H586.868V387H585.212V385.47ZM621.739 385.47H623.395V387H621.739V385.47ZM658.266 385.47H659.922V387H658.266V385.47ZM694.794 385.47H696.45V387H694.794V385.47ZM731.321 385.47H732.977V387H731.321V385.47ZM767.848 385.47H769.504V387H767.848V385.47ZM804.376 385.47H806.032V387H804.376V385.47ZM840.903 385.47H842.559V387H840.903V385.47ZM877.43 385.47H879.086V387H877.43V385.47ZM1023.54 385.47H1025.2V387H1023.54V385.47ZM1060.07 385.47H1061.72V387H1060.07V385.47ZM1242.7 385.47H1244.36V387H1242.7V385.47ZM1279.23 385.47H1280.89V387H1279.23V385.47ZM1315.76 385.47H1317.41V387H1315.76V385.47ZM0.774 420.47H2.43V422H0.774V420.47ZM37.3013 420.47H38.9573V422H37.3013V420.47ZM73.8287 420.47H75.4847V422H73.8287V420.47ZM110.356 420.47H112.012V422H110.356V420.47ZM146.883 420.47H148.539V422H146.883V420.47ZM183.411 420.47H185.067V422H183.411V420.47ZM219.938 420.47H221.594V422H219.938V420.47ZM256.465 420.47H258.121V422H256.465V420.47ZM292.993 420.47H294.649V422H292.993V420.47ZM329.52 420.47H331.176V422H329.52V420.47ZM366.047 420.47H367.703V422H366.047V420.47ZM402.575 420.47H404.231V422H402.575V420.47ZM439.102 420.47H440.758V422H439.102V420.47ZM475.629 420.47H477.285V422H475.629V420.47ZM694.794 420.47H696.45V422H694.794V420.47ZM731.321 420.47H732.977V422H731.321V420.47ZM840.903 420.47H842.559V422H840.903V420.47ZM877.43 420.47H879.086V422H877.43V420.47ZM913.958 420.47H915.614V422H913.958V420.47ZM950.485 420.47H952.141V422H950.485V420.47ZM987.012 420.47H988.668V422H987.012V420.47ZM1023.54 420.47H1025.2V422H1023.54V420.47ZM1060.07 420.47H1061.72V422H1060.07V420.47ZM1096.59 420.47H1098.25V422H1096.59V420.47ZM1133.12 420.47H1134.78V422H1133.12V420.47ZM1169.65 420.47H1171.31V422H1169.65V420.47ZM1242.7 420.47H1244.36V422H1242.7V420.47ZM1279.23 420.47H1280.89V422H1279.23V420.47ZM1315.76 420.47H1317.41V422H1315.76V420.47ZM0.774 455.47H2.43V457H0.774V455.47ZM292.993 455.47H294.649V457H292.993V455.47ZM329.52 455.47H331.176V457H329.52V455.47ZM366.047 455.47H367.703V457H366.047V455.47ZM402.575 455.47H404.231V457H402.575V455.47ZM439.102 455.47H440.758V457H439.102V455.47ZM475.629 455.47H477.285V457H475.629V455.47ZM694.794 455.47H696.45V457H694.794V455.47ZM731.321 455.47H732.977V457H731.321V455.47ZM767.848 455.47H769.504V457H767.848V455.47ZM840.903 455.47H842.559V457H840.903V455.47ZM877.43 455.47H879.086V457H877.43V455.47ZM913.958 455.47H915.614V457H913.958V455.47ZM950.485 455.47H952.141V457H950.485V455.47ZM987.012 455.47H988.668V457H987.012V455.47ZM1023.54 455.47H1025.2V457H1023.54V455.47ZM1060.07 455.47H1061.72V457H1060.07V455.47ZM1096.59 455.47H1098.25V457H1096.59V455.47ZM1133.12 455.47H1134.78V457H1133.12V455.47ZM1169.65 455.47H1171.31V457H1169.65V455.47ZM1206.18 455.47H1207.83V457H1206.18V455.47ZM1242.7 455.47H1244.36V457H1242.7V455.47ZM1279.23 455.47H1280.89V457H1279.23V455.47ZM1315.76 455.47H1317.41V457H1315.76V455.47ZM0.774 490.47H2.43V492H0.774V490.47ZM37.3013 490.47H38.9573V492H37.3013V490.47ZM73.8287 490.47H75.4847V492H73.8287V490.47ZM110.356 490.47H112.012V492H110.356V490.47ZM146.883 490.47H148.539V492H146.883V490.47ZM183.411 490.47H185.067V492H183.411V490.47ZM219.938 490.47H221.594V492H219.938V490.47ZM256.465 490.47H258.121V492H256.465V490.47ZM292.993 490.47H294.649V492H292.993V490.47ZM329.52 490.47H331.176V492H329.52V490.47ZM366.047 490.47H367.703V492H366.047V490.47ZM402.575 490.47H404.231V492H402.575V490.47ZM439.102 490.47H440.758V492H439.102V490.47ZM475.629 490.47H477.285V492H475.629V490.47ZM512.157 490.47H513.813V492H512.157V490.47ZM548.684 490.47H550.34V492H548.684V490.47ZM694.794 490.47H696.45V492H694.794V490.47ZM731.321 490.47H732.977V492H731.321V490.47ZM767.848 490.47H769.504V492H767.848V490.47ZM804.376 490.47H806.032V492H804.376V490.47ZM877.43 490.47H879.086V492H877.43V490.47ZM913.958 490.47H915.614V492H913.958V490.47ZM950.485 490.47H952.141V492H950.485V490.47ZM987.012 490.47H988.668V492H987.012V490.47ZM1023.54 490.47H1025.2V492H1023.54V490.47ZM1060.07 490.47H1061.72V492H1060.07V490.47ZM1096.59 490.47H1098.25V492H1096.59V490.47ZM1133.12 490.47H1134.78V492H1133.12V490.47ZM1169.65 490.47H1171.31V492H1169.65V490.47ZM1206.18 490.47H1207.83V492H1206.18V490.47ZM1242.7 490.47H1244.36V492H1242.7V490.47ZM1279.23 490.47H1280.89V492H1279.23V490.47ZM1315.76 490.47H1317.41V492H1315.76V490.47ZM0.774 525.47H2.43V527H0.774V525.47ZM37.3013 525.47H38.9573V527H37.3013V525.47ZM73.8287 525.47H75.4847V527H73.8287V525.47ZM110.356 525.47H112.012V527H110.356V525.47ZM146.883 525.47H148.539V527H146.883V525.47ZM183.411 525.47H185.067V527H183.411V525.47ZM219.938 525.47H221.594V527H219.938V525.47ZM366.047 525.47H367.703V527H366.047V525.47ZM402.575 525.47H404.231V527H402.575V525.47ZM439.102 525.47H440.758V527H439.102V525.47ZM475.629 525.47H477.285V527H475.629V525.47ZM512.157 525.47H513.813V527H512.157V525.47ZM548.684 525.47H550.34V527H548.684V525.47ZM585.212 525.47H586.868V527H585.212V525.47ZM621.739 525.47H623.395V527H621.739V525.47ZM658.266 525.47H659.922V527H658.266V525.47ZM694.794 525.47H696.45V527H694.794V525.47ZM731.321 525.47H732.977V527H731.321V525.47ZM767.848 525.47H769.504V527H767.848V525.47ZM804.376 525.47H806.032V527H804.376V525.47ZM840.903 525.47H842.559V527H840.903V525.47ZM913.958 525.47H915.614V527H913.958V525.47ZM950.485 525.47H952.141V527H950.485V525.47ZM987.012 525.47H988.668V527H987.012V525.47ZM1279.23 525.47H1280.89V527H1279.23V525.47ZM1315.76 525.47H1317.41V527H1315.76V525.47ZM0.774 560.47H2.43V562H0.774V560.47ZM37.3013 560.47H38.9573V562H37.3013V560.47ZM73.8287 560.47H75.4847V562H73.8287V560.47ZM110.356 560.47H112.012V562H110.356V560.47ZM146.883 560.47H148.539V562H146.883V560.47ZM183.411 560.47H185.067V562H183.411V560.47ZM219.938 560.47H221.594V562H219.938V560.47ZM256.465 560.47H258.121V562H256.465V560.47ZM292.993 560.47H294.649V562H292.993V560.47ZM366.047 560.47H367.703V562H366.047V560.47ZM402.575 560.47H404.231V562H402.575V560.47ZM439.102 560.47H440.758V562H439.102V560.47ZM475.629 560.47H477.285V562H475.629V560.47ZM512.157 560.47H513.813V562H512.157V560.47ZM548.684 560.47H550.34V562H548.684V560.47ZM585.212 560.47H586.868V562H585.212V560.47ZM621.739 560.47H623.395V562H621.739V560.47ZM694.794 560.47H696.45V562H694.794V560.47ZM731.321 560.47H732.977V562H731.321V560.47ZM767.848 560.47H769.504V562H767.848V560.47ZM804.376 560.47H806.032V562H804.376V560.47ZM840.903 560.47H842.559V562H840.903V560.47ZM877.43 560.47H879.086V562H877.43V560.47ZM913.958 560.47H915.614V562H913.958V560.47ZM950.485 560.47H952.141V562H950.485V560.47ZM987.012 560.47H988.668V562H987.012V560.47ZM1023.54 560.47H1025.2V562H1023.54V560.47ZM1060.07 560.47H1061.72V562H1060.07V560.47ZM1096.59 560.47H1098.25V562H1096.59V560.47ZM1169.65 560.47H1171.31V562H1169.65V560.47ZM1206.18 560.47H1207.83V562H1206.18V560.47ZM1242.7 560.47H1244.36V562H1242.7V560.47ZM1279.23 560.47H1280.89V562H1279.23V560.47ZM1315.76 560.47H1317.41V562H1315.76V560.47ZM0.774 595.47H2.43V597H0.774V595.47ZM219.938 595.47H221.594V597H219.938V595.47ZM256.465 595.47H258.121V597H256.465V595.47ZM292.993 595.47H294.649V597H292.993V595.47ZM366.047 595.47H367.703V597H366.047V595.47ZM402.575 595.47H404.231V597H402.575V595.47ZM439.102 595.47H440.758V597H439.102V595.47ZM585.212 595.47H586.868V597H585.212V595.47ZM621.739 595.47H623.395V597H621.739V595.47ZM658.266 595.47H659.922V597H658.266V595.47ZM694.794 595.47H696.45V597H694.794V595.47ZM731.321 595.47H732.977V597H731.321V595.47ZM767.848 595.47H769.504V597H767.848V595.47ZM877.43 595.47H879.086V597H877.43V595.47ZM913.958 595.47H915.614V597H913.958V595.47ZM950.485 595.47H952.141V597H950.485V595.47ZM987.012 595.47H988.668V597H987.012V595.47ZM1133.12 595.47H1134.78V597H1133.12V595.47ZM1169.65 595.47H1171.31V597H1169.65V595.47ZM1206.18 595.47H1207.83V597H1206.18V595.47ZM1242.7 595.47H1244.36V597H1242.7V595.47ZM1279.23 595.47H1280.89V597H1279.23V595.47ZM1315.76 595.47H1317.41V597H1315.76V595.47ZM0.774 629.47H2.43V631H0.774V629.47ZM37.3013 629.47H38.9573V631H37.3013V629.47ZM73.8287 629.47H75.4847V631H73.8287V629.47ZM110.356 629.47H112.012V631H110.356V629.47ZM146.883 629.47H148.539V631H146.883V629.47ZM183.411 629.47H185.067V631H183.411V629.47ZM292.993 629.47H294.649V631H292.993V629.47ZM366.047 629.47H367.703V631H366.047V629.47ZM402.575 629.47H404.231V631H402.575V629.47ZM439.102 629.47H440.758V631H439.102V629.47ZM475.629 629.47H477.285V631H475.629V629.47ZM512.157 629.47H513.813V631H512.157V629.47ZM548.684 629.47H550.34V631H548.684V629.47ZM585.212 629.47H586.868V631H585.212V629.47ZM621.739 629.47H623.395V631H621.739V629.47ZM658.266 629.47H659.922V631H658.266V629.47ZM694.794 629.47H696.45V631H694.794V629.47ZM731.321 629.47H732.977V631H731.321V629.47ZM767.848 629.47H769.504V631H767.848V629.47ZM877.43 629.47H879.086V631H877.43V629.47ZM913.958 629.47H915.614V631H913.958V629.47ZM950.485 629.47H952.141V631H950.485V629.47ZM987.012 629.47H988.668V631H987.012V629.47ZM1023.54 629.47H1025.2V631H1023.54V629.47ZM1060.07 629.47H1061.72V631H1060.07V629.47ZM1096.59 629.47H1098.25V631H1096.59V629.47ZM1133.12 629.47H1134.78V631H1133.12V629.47ZM1169.65 629.47H1171.31V631H1169.65V629.47ZM1206.18 629.47H1207.83V631H1206.18V629.47ZM1242.7 629.47H1244.36V631H1242.7V629.47ZM1279.23 629.47H1280.89V631H1279.23V629.47ZM1315.76 629.47H1317.41V631H1315.76V629.47ZM0.774 664.47H2.43V666H0.774V664.47ZM37.3013 664.47H38.9573V666H37.3013V664.47ZM73.8287 664.47H75.4847V666H73.8287V664.47ZM110.356 664.47H112.012V666H110.356V664.47ZM146.883 664.47H148.539V666H146.883V664.47ZM183.411 664.47H185.067V666H183.411V664.47ZM219.938 664.47H221.594V666H219.938V664.47ZM256.465 664.47H258.121V666H256.465V664.47ZM292.993 664.47H294.649V666H292.993V664.47ZM329.52 664.47H331.176V666H329.52V664.47ZM366.047 664.47H367.703V666H366.047V664.47ZM402.575 664.47H404.231V666H402.575V664.47ZM439.102 664.47H440.758V666H439.102V664.47ZM475.629 664.47H477.285V666H475.629V664.47ZM512.157 664.47H513.813V666H512.157V664.47ZM548.684 664.47H550.34V666H548.684V664.47ZM585.212 664.47H586.868V666H585.212V664.47ZM621.739 664.47H623.395V666H621.739V664.47ZM658.266 664.47H659.922V666H658.266V664.47ZM694.794 664.47H696.45V666H694.794V664.47ZM731.321 664.47H732.977V666H731.321V664.47ZM767.848 664.47H769.504V666H767.848V664.47ZM804.376 664.47H806.032V666H804.376V664.47ZM840.903 664.47H842.559V666H840.903V664.47ZM877.43 664.47H879.086V666H877.43V664.47ZM913.958 664.47H915.614V666H913.958V664.47ZM987.012 664.47H988.668V666H987.012V664.47ZM1023.54 664.47H1025.2V666H1023.54V664.47ZM1060.07 664.47H1061.72V666H1060.07V664.47ZM1096.59 664.47H1098.25V666H1096.59V664.47ZM1133.12 664.47H1134.78V666H1133.12V664.47ZM1169.65 664.47H1171.31V666H1169.65V664.47ZM1206.18 664.47H1207.83V666H1206.18V664.47ZM1242.7 664.47H1244.36V666H1242.7V664.47ZM1279.23 664.47H1280.89V666H1279.23V664.47ZM1315.76 664.47H1317.41V666H1315.76V664.47ZM0.774 699.47H2.43V701H0.774V699.47ZM37.3013 699.47H38.9573V701H37.3013V699.47ZM73.8287 699.47H75.4847V701H73.8287V699.47ZM110.356 699.47H112.012V701H110.356V699.47ZM146.883 699.47H148.539V701H146.883V699.47ZM183.411 699.47H185.067V701H183.411V699.47ZM219.938 699.47H221.594V701H219.938V699.47ZM256.465 699.47H258.121V701H256.465V699.47ZM292.993 699.47H294.649V701H292.993V699.47ZM329.52 699.47H331.176V701H329.52V699.47ZM366.047 699.47H367.703V701H366.047V699.47ZM402.575 699.47H404.231V701H402.575V699.47ZM439.102 699.47H440.758V701H439.102V699.47ZM475.629 699.47H477.285V701H475.629V699.47ZM512.157 699.47H513.813V701H512.157V699.47ZM548.684 699.47H550.34V701H548.684V699.47ZM585.212 699.47H586.868V701H585.212V699.47ZM621.739 699.47H623.395V701H621.739V699.47ZM658.266 699.47H659.922V701H658.266V699.47ZM694.794 699.47H696.45V701H694.794V699.47ZM731.321 699.47H732.977V701H731.321V699.47ZM767.848 699.47H769.504V701H767.848V699.47ZM804.376 699.47H806.032V701H804.376V699.47ZM840.903 699.47H842.559V701H840.903V699.47ZM877.43 699.47H879.086V701H877.43V699.47ZM913.958 699.47H915.614V701H913.958V699.47ZM950.485 699.47H952.141V701H950.485V699.47ZM987.012 699.47H988.668V701H987.012V699.47ZM1023.54 699.47H1025.2V701H1023.54V699.47ZM1060.07 699.47H1061.72V701H1060.07V699.47ZM1096.59 699.47H1098.25V701H1096.59V699.47ZM1133.12 699.47H1134.78V701H1133.12V699.47ZM1169.65 699.47H1171.31V701H1169.65V699.47ZM1206.18 699.47H1207.83V701H1206.18V699.47ZM1242.7 699.47H1244.36V701H1242.7V699.47ZM1279.23 699.47H1280.89V701H1279.23V699.47ZM1315.76 699.47H1317.41V701H1315.76V699.47Z" fill="#2173C0"/>
<path d="M37.3013 35.47H38.9573V37H37.3013V35.47ZM73.8287 35.47H75.4847V37H73.8287V35.47ZM110.356 35.47H112.012V37H110.356V35.47ZM840.903 35.47H842.559V37H840.903V35.47ZM877.43 35.47H879.086V37H877.43V35.47ZM950.485 35.47H952.141V37H950.485V35.47ZM987.012 35.47H988.668V37H987.012V35.47ZM1060.07 35.47H1061.72V37H1060.07V35.47ZM1133.12 35.47H1134.78V37H1133.12V35.47ZM1169.65 35.47H1171.31V37H1169.65V35.47ZM1206.18 35.47H1207.83V37H1206.18V35.47ZM329.52 105.47H331.176V107H329.52V105.47ZM366.047 105.47H367.703V107H366.047V105.47ZM329.52 140.47H331.176V142H329.52V140.47ZM366.047 140.47H367.703V142H366.047V140.47ZM913.958 140.47H915.614V142H913.958V140.47ZM950.485 140.47H952.141V142H950.485V140.47ZM987.012 140.47H988.668V142H987.012V140.47ZM1023.54 140.47H1025.2V142H1023.54V140.47ZM1060.07 140.47H1061.72V142H1060.07V140.47ZM37.3013 175.47H38.9573V177H37.3013V175.47ZM73.8287 175.47H75.4847V177H73.8287V175.47ZM110.356 175.47H112.012V177H110.356V175.47ZM146.883 175.47H148.539V177H146.883V175.47ZM183.411 175.47H185.067V177H183.411V175.47ZM219.938 175.47H221.594V177H219.938V175.47ZM1060.07 175.47H1061.72V177H1060.07V175.47ZM37.3013 210.47H38.9573V212H37.3013V210.47ZM73.8287 210.47H75.4847V212H73.8287V210.47ZM110.356 210.47H112.012V212H110.356V210.47ZM146.883 210.47H148.539V212H146.883V210.47ZM183.411 210.47H185.067V212H183.411V210.47ZM1060.07 210.47H1061.72V212H1060.07V210.47ZM37.3013 245.47H38.9573V247H37.3013V245.47ZM73.8287 245.47H75.4847V247H73.8287V245.47ZM110.356 245.47H112.012V247H110.356V245.47ZM146.883 245.47H148.539V247H146.883V245.47ZM183.411 245.47H185.067V247H183.411V245.47ZM219.938 245.47H221.594V247H219.938V245.47ZM256.465 245.47H258.121V247H256.465V245.47ZM292.993 245.47H294.649V247H292.993V245.47ZM329.52 245.47H331.176V247H329.52V245.47ZM366.047 245.47H367.703V247H366.047V245.47ZM402.575 245.47H404.231V247H402.575V245.47ZM439.102 245.47H440.758V247H439.102V245.47ZM1060.07 245.47H1061.72V247H1060.07V245.47ZM37.3013 280.47H38.9573V282H37.3013V280.47ZM73.8287 280.47H75.4847V282H73.8287V280.47ZM110.356 280.47H112.012V282H110.356V280.47ZM146.883 280.47H148.539V282H146.883V280.47ZM183.411 280.47H185.067V282H183.411V280.47ZM219.938 280.47H221.594V282H219.938V280.47ZM256.465 280.47H258.121V282H256.465V280.47ZM292.993 280.47H294.649V282H292.993V280.47ZM329.52 280.47H331.176V282H329.52V280.47ZM366.047 280.47H367.703V282H366.047V280.47ZM402.575 280.47H404.231V282H402.575V280.47ZM439.102 280.47H440.758V282H439.102V280.47ZM37.3013 315.47H38.9573V317H37.3013V315.47ZM73.8287 315.47H75.4847V317H73.8287V315.47ZM110.356 315.47H112.012V317H110.356V315.47ZM146.883 315.47H148.539V317H146.883V315.47ZM183.411 315.47H185.067V317H183.411V315.47ZM219.938 315.47H221.594V317H219.938V315.47ZM256.465 315.47H258.121V317H256.465V315.47ZM292.993 315.47H294.649V317H292.993V315.47ZM329.52 315.47H331.176V317H329.52V315.47ZM366.047 315.47H367.703V317H366.047V315.47ZM402.575 315.47H404.231V317H402.575V315.47ZM439.102 315.47H440.758V317H439.102V315.47ZM475.629 315.47H477.285V317H475.629V315.47ZM37.3013 350.47H38.9573V352H37.3013V350.47ZM73.8287 350.47H75.4847V352H73.8287V350.47ZM110.356 350.47H112.012V352H110.356V350.47ZM183.411 350.47H185.067V352H183.411V350.47ZM219.938 350.47H221.594V352H219.938V350.47ZM256.465 350.47H258.121V352H256.465V350.47ZM292.993 350.47H294.649V352H292.993V350.47ZM329.52 350.47H331.176V352H329.52V350.47ZM366.047 350.47H367.703V352H366.047V350.47ZM402.575 350.47H404.231V352H402.575V350.47ZM439.102 350.47H440.758V352H439.102V350.47ZM913.958 350.47H915.614V352H913.958V350.47ZM950.485 350.47H952.141V352H950.485V350.47ZM987.012 350.47H988.668V352H987.012V350.47ZM913.958 385.47H915.614V387H913.958V385.47ZM950.485 385.47H952.141V387H950.485V385.47ZM987.012 385.47H988.668V387H987.012V385.47ZM512.157 420.47H513.813V422H512.157V420.47ZM548.684 420.47H550.34V422H548.684V420.47ZM37.3013 455.47H38.9573V457H37.3013V455.47ZM73.8287 455.47H75.4847V457H73.8287V455.47ZM110.356 455.47H112.012V457H110.356V455.47ZM146.883 455.47H148.539V457H146.883V455.47ZM183.411 455.47H185.067V457H183.411V455.47ZM219.938 455.47H221.594V457H219.938V455.47ZM256.465 455.47H258.121V457H256.465V455.47ZM512.157 455.47H513.813V457H512.157V455.47ZM548.684 455.47H550.34V457H548.684V455.47ZM256.465 525.47H258.121V527H256.465V525.47ZM292.993 525.47H294.649V527H292.993V525.47ZM329.52 525.47H331.176V527H329.52V525.47ZM1023.54 525.47H1025.2V527H1023.54V525.47ZM1060.07 525.47H1061.72V527H1060.07V525.47ZM1096.59 525.47H1098.25V527H1096.59V525.47ZM1133.12 525.47H1134.78V527H1133.12V525.47ZM1169.65 525.47H1171.31V527H1169.65V525.47ZM1206.18 525.47H1207.83V527H1206.18V525.47ZM1242.7 525.47H1244.36V527H1242.7V525.47ZM329.52 560.47H331.176V562H329.52V560.47ZM37.3013 595.47H38.9573V597H37.3013V595.47ZM73.8287 595.47H75.4847V597H73.8287V595.47ZM110.356 595.47H112.012V597H110.356V595.47ZM146.883 595.47H148.539V597H146.883V595.47ZM183.411 595.47H185.067V597H183.411V595.47ZM329.52 595.47H331.176V597H329.52V595.47ZM804.376 595.47H806.032V597H804.376V595.47ZM840.903 595.47H842.559V597H840.903V595.47ZM329.52 629.47H331.176V631H329.52V629.47ZM804.376 629.47H806.032V631H804.376V629.47ZM840.903 629.47H842.559V631H840.903V629.47Z" fill="black"/>
<path d="M512.157 35.47H513.813V37H512.157V35.47ZM183.411 70.47H185.067V72H183.411V70.47ZM767.848 70.47H769.504V72H767.848V70.47ZM804.376 70.47H806.032V72H804.376V70.47ZM840.903 70.47H842.559V72H840.903V70.47ZM877.43 70.47H879.086V72H877.43V70.47ZM1133.12 140.47H1134.78V142H1133.12V140.47ZM1133.12 175.47H1134.78V177H1133.12V175.47ZM402.575 210.47H404.231V212H402.575V210.47ZM1133.12 210.47H1134.78V212H1133.12V210.47ZM950.485 280.47H952.141V282H950.485V280.47ZM658.266 315.47H659.922V317H658.266V315.47ZM1279.23 350.47H1280.89V352H1279.23V350.47ZM366.047 385.47H367.703V387H366.047V385.47ZM1096.59 385.47H1098.25V387H1096.59V385.47ZM1133.12 385.47H1134.78V387H1133.12V385.47ZM1169.65 385.47H1171.31V387H1169.65V385.47ZM1206.18 385.47H1207.83V387H1206.18V385.47ZM585.212 420.47H586.868V422H585.212V420.47ZM621.739 420.47H623.395V422H621.739V420.47ZM658.266 420.47H659.922V422H658.266V420.47ZM767.848 420.47H769.504V422H767.848V420.47ZM804.376 420.47H806.032V422H804.376V420.47ZM1206.18 420.47H1207.83V422H1206.18V420.47ZM585.212 455.47H586.868V457H585.212V455.47ZM621.739 455.47H623.395V457H621.739V455.47ZM658.266 455.47H659.922V457H658.266V455.47ZM804.376 455.47H806.032V457H804.376V455.47ZM585.212 490.47H586.868V492H585.212V490.47ZM621.739 490.47H623.395V492H621.739V490.47ZM658.266 490.47H659.922V492H658.266V490.47ZM840.903 490.47H842.559V492H840.903V490.47ZM877.43 525.47H879.086V527H877.43V525.47ZM658.266 560.47H659.922V562H658.266V560.47ZM1133.12 560.47H1134.78V562H1133.12V560.47ZM475.629 595.47H477.285V597H475.629V595.47ZM512.157 595.47H513.813V597H512.157V595.47ZM548.684 595.47H550.34V597H548.684V595.47ZM1023.54 595.47H1025.2V597H1023.54V595.47ZM1060.07 595.47H1061.72V597H1060.07V595.47ZM1096.59 595.47H1098.25V597H1096.59V595.47ZM219.938 629.47H221.594V631H219.938V629.47ZM256.465 629.47H258.121V631H256.465V629.47ZM950.485 664.47H952.141V666H950.485V664.47Z" fill="white"/>
</svg>
