<svg width="1047" height="193" viewBox="0 0 1047 193" fill="none" xmlns="http://www.w3.org/2000/svg">
<path d="M1.416 3.52798V3.02798H0.916001V3.52798H1.416ZM134.472 3.52798H134.972V3.02798H134.472V3.52798ZM134.472 33.768V34.268H134.972V33.768H134.472ZM40.296 33.768V33.268H39.796V33.768H40.296ZM40.296 81.288H39.796V81.788H40.296V81.288ZM123.816 81.288H124.316V80.788H123.816V81.288ZM123.816 111.24V111.74H124.316V111.24H123.816ZM40.296 111.24V110.74H39.796V111.24H40.296ZM40.296 159.048H39.796V159.548H40.296V159.048ZM134.472 159.048H134.972V158.548H134.472V159.048ZM134.472 189V189.5H134.972V189H134.472ZM1.416 189H0.916001V189.5H1.416V189ZM1.416 4.02798H134.472V3.02798H1.416V4.02798ZM133.972 3.52798V33.768H134.972V3.52798H133.972ZM134.472 33.268H40.296V34.268H134.472V33.268ZM39.796 33.768V81.288H40.796V33.768H39.796ZM40.296 81.788H123.816V80.788H40.296V81.788ZM123.316 81.288V111.24H124.316V81.288H123.316ZM123.816 110.74H40.296V111.74H123.816V110.74ZM39.796 111.24V159.048H40.796V111.24H39.796ZM40.296 159.548H134.472V158.548H40.296V159.548ZM133.972 159.048V189H134.972V159.048H133.972ZM134.472 188.5H1.416V189.5H134.472V188.5ZM1.916 189V3.52798H0.916001V189H1.916ZM170.087 3.52798V3.02798H169.587V3.52798H170.087ZM203.783 3.52798L204.191 3.23827L204.041 3.02798H203.783V3.52798ZM291.623 127.08L291.216 127.37L292.123 128.646V127.08H291.623ZM291.623 3.52798V3.02798H291.123V3.52798H291.623ZM330.503 3.52798H331.003V3.02798H330.503V3.52798ZM330.503 189V189.5H331.003V189H330.503ZM296.807 189L296.4 189.29L296.549 189.5H296.807V189ZM208.967 65.448L209.375 65.1583L208.467 63.8818V65.448H208.967ZM208.967 189V189.5H209.467V189H208.967ZM170.087 189H169.587V189.5H170.087V189ZM170.087 4.02798H203.783V3.02798H170.087V4.02798ZM203.376 3.8177L291.216 127.37L292.031 126.79L204.191 3.23827L203.376 3.8177ZM292.123 127.08V3.52798H291.123V127.08H292.123ZM291.623 4.02798H330.503V3.02798H291.623V4.02798ZM330.003 3.52798V189H331.003V3.52798H330.003ZM330.503 188.5H296.807V189.5H330.503V188.5ZM297.215 188.71L209.375 65.1583L208.56 65.7377L296.4 189.29L297.215 188.71ZM208.467 65.448V189H209.467V65.448H208.467ZM208.967 188.5H170.087V189.5H208.967V188.5ZM170.587 189V3.52798H169.587V189H170.587ZM371.946 3.52798V3.02798H371.446V3.52798H371.946ZM502.41 3.52798H502.91V3.02798H502.41V3.52798ZM502.41 33.768V34.268H502.91V33.768H502.41ZM410.826 33.768V33.268H410.326V33.768H410.826ZM410.826 81.288H410.326V81.788H410.826V81.288ZM491.754 81.288H492.254V80.788H491.754V81.288ZM491.754 111.24V111.74H492.254V111.24H491.754ZM410.826 111.24V110.74H410.326V111.24H410.826ZM410.826 189V189.5H411.326V189H410.826ZM371.946 189H371.446V189.5H371.946V189ZM371.946 4.02798H502.41V3.02798H371.946V4.02798ZM501.91 3.52798V33.768H502.91V3.52798H501.91ZM502.41 33.268H410.826V34.268H502.41V33.268ZM410.326 33.768V81.288H411.326V33.768H410.326ZM410.826 81.788H491.754V80.788H410.826V81.788ZM491.254 81.288V111.24H492.254V81.288H491.254ZM491.754 110.74H410.826V111.74H491.754V110.74ZM410.326 111.24V189H411.326V111.24H410.326ZM410.826 188.5H371.946V189.5H410.826V188.5ZM372.446 189V3.52798H371.446V189H372.446ZM533.127 23.976L532.767 23.6292L532.767 23.6293L533.127 23.976ZM668.775 23.976L668.413 24.3205L668.417 24.325L668.775 23.976ZM639.399 143.784L639.784 144.103L639.787 144.099L639.399 143.784ZM639.687 48.456L639.301 48.7739L639.304 48.7776L639.687 48.456ZM562.503 48.456L562.886 48.7776L562.889 48.7738L562.503 48.456ZM562.791 143.784L562.403 144.099L562.406 144.103L562.791 143.784ZM601.095 191.38C571.131 191.38 548.747 183.507 533.849 167.847C518.947 152.183 511.451 128.641 511.451 97.128H510.451C510.451 128.783 517.979 152.617 533.125 168.537C548.274 184.461 570.963 192.38 601.095 192.38V191.38ZM511.451 97.128C511.451 63.7785 518.832 39.5487 533.487 24.3227L532.767 23.6293C517.854 39.1233 510.451 63.6615 510.451 97.128H511.451ZM533.487 24.3228C548.336 8.90283 570.839 1.14798 601.095 1.14798V0.14798C570.679 0.14798 547.87 7.94514 532.767 23.6292L533.487 24.3228ZM601.095 1.14798C631.352 1.14798 653.757 8.90305 668.413 24.3205L669.137 23.6315C654.225 7.94493 631.51 0.14798 601.095 0.14798V1.14798ZM668.417 24.325C683.262 39.5511 690.739 63.7799 690.739 97.128H691.739C691.739 63.66 684.24 39.1209 669.133 23.627L668.417 24.325ZM690.739 97.128C690.739 128.641 683.243 152.183 668.341 167.847C653.442 183.507 631.059 191.38 601.095 191.38V192.38C631.227 192.38 653.916 184.461 669.065 168.537C684.211 152.617 691.739 128.783 691.739 97.128H690.739ZM601.095 159.26C618.471 159.26 631.404 154.237 639.784 144.103L639.014 143.465C630.882 153.299 618.279 158.26 601.095 158.26V159.26ZM639.787 144.099C648.148 133.794 652.283 118.107 652.283 97.128H651.283C651.283 118.005 647.162 133.422 639.011 143.469L639.787 144.099ZM652.283 97.128C652.283 74.2481 648.251 57.8735 640.07 48.1344L639.304 48.7776C647.251 58.2385 651.283 74.3119 651.283 97.128H652.283ZM640.073 48.1381C631.881 38.1905 618.847 33.268 601.095 33.268V34.268C618.671 34.268 631.365 39.1375 639.301 48.7738L640.073 48.1381ZM601.095 33.268C583.343 33.268 570.309 38.1905 562.117 48.1381L562.889 48.7738C570.825 39.1375 583.519 34.268 601.095 34.268V33.268ZM562.12 48.1344C553.939 57.8735 549.907 74.2481 549.907 97.128H550.907C550.907 74.3119 554.939 58.2385 562.886 48.7776L562.12 48.1344ZM549.907 97.128C549.907 118.107 554.042 133.794 562.403 144.099L563.179 143.469C555.028 133.422 550.907 118.005 550.907 97.128H549.907ZM562.406 144.103C570.786 154.237 583.719 159.26 601.095 159.26V158.26C583.911 158.26 571.308 153.299 563.176 143.465L562.406 144.103ZM727.007 3.52798V3.02798H726.507V3.52798H727.007ZM862.367 19.944L862.001 20.2845L862.004 20.2879L862.367 19.944ZM868.127 97.992L867.722 97.6989L867.718 97.7047L868.127 97.992ZM841.055 117.576L840.893 117.103L840.072 117.386L840.728 117.954L841.055 117.576ZM847.967 125.64L847.539 125.897L847.549 125.914L847.56 125.931L847.967 125.64ZM854.015 137.16L853.555 137.355L853.556 137.359L854.015 137.16ZM876.479 189V189.5H877.241L876.938 188.801L876.479 189ZM836.159 189L835.701 189.201L835.833 189.5H836.159V189ZM814.271 139.176L813.813 139.375L813.813 139.377L814.271 139.176ZM807.647 130.248L807.347 130.648L807.366 130.662L807.385 130.674L807.647 130.248ZM765.887 127.656V127.156H765.387V127.656H765.887ZM765.887 189V189.5H766.387V189H765.887ZM727.007 189H726.507V189.5H727.007V189ZM830.111 88.488L830.43 88.8733L830.438 88.8667L830.111 88.488ZM830.975 42.984L831.322 42.6236L830.975 42.984ZM765.887 35.784V35.284H765.387V35.784H765.887ZM765.887 95.4H765.387V95.9H765.887V95.4ZM727.007 4.02798H815.999V3.02798H727.007V4.02798ZM815.999 4.02798C836.652 4.02798 851.952 9.47672 862.001 20.2845L862.733 19.6035C852.431 8.52325 836.819 3.02798 815.999 3.02798V4.02798ZM862.004 20.2879C872.26 31.1138 877.419 46.2404 877.419 65.736H878.419C878.419 46.0636 873.21 30.6622 862.73 19.6001L862.004 20.2879ZM877.419 65.736C877.419 78.124 874.181 88.7704 867.722 97.6989L868.532 98.285C875.129 89.1656 878.419 78.308 878.419 65.736H877.419ZM867.718 97.7047C861.45 106.632 852.518 113.101 840.893 117.103L841.218 118.049C853.017 113.987 862.133 107.4 868.536 98.2793L867.718 97.7047ZM840.728 117.954C843.573 120.42 845.841 123.068 847.539 125.897L848.396 125.383C846.637 122.452 844.297 119.724 841.383 117.198L840.728 117.954ZM847.56 125.931C849.45 128.576 851.449 132.378 853.555 137.355L854.476 136.965C852.357 131.958 850.325 128.08 848.374 125.349L847.56 125.931ZM853.556 137.359L876.021 189.199L876.938 188.801L854.474 136.961L853.556 137.359ZM876.479 188.5H836.159V189.5H876.479V188.5ZM836.617 188.799L814.729 138.975L813.813 139.377L835.701 189.201L836.617 188.799ZM814.73 138.977C812.793 134.522 810.532 131.436 807.909 129.822L807.385 130.674C809.754 132.132 811.91 134.998 813.813 139.375L814.73 138.977ZM807.947 129.848C805.511 128.021 801.631 127.156 796.415 127.156V128.156C801.567 128.156 805.175 129.019 807.347 130.648L807.947 129.848ZM796.415 127.156H765.887V128.156H796.415V127.156ZM765.387 127.656V189H766.387V127.656H765.387ZM765.887 188.5H727.007V189.5H765.887V188.5ZM727.507 189V3.52798H726.507V189H727.507ZM805.919 95.9C816.543 95.9 824.739 93.583 830.43 88.8732L829.792 88.1028C824.347 92.609 816.415 94.9 805.919 94.9V95.9ZM830.438 88.8667C836.155 83.9377 838.963 76.1876 838.963 65.736H837.963C837.963 76.0204 835.203 83.4384 829.785 88.1093L830.438 88.8667ZM838.963 65.736C838.963 55.2993 836.452 47.556 831.322 42.6236L830.629 43.3444C835.483 48.0119 837.963 55.4367 837.963 65.736H838.963ZM831.322 42.6236C826.201 37.6996 818.468 35.284 808.223 35.284V36.284C818.33 36.284 825.766 38.6684 830.629 43.3444L831.322 42.6236ZM808.223 35.284H765.887V36.284H808.223V35.284ZM765.387 35.784V95.4H766.387V35.784H765.387ZM765.887 95.9H805.919V94.9H765.887V95.9ZM911.375 181.8H910.875V182.125L911.172 182.257L911.375 181.8ZM911.375 147.528L911.56 147.064L910.875 146.789V147.528H911.375ZM939.023 155.88L939.128 155.391L939.023 155.88ZM997.775 155.016L997.569 154.56L997.563 154.563L997.775 155.016ZM1002.67 125.064L1003.06 124.746L1002.67 125.064ZM989.423 116.712L989.234 117.175L989.247 117.18L989.423 116.712ZM960.622 107.496L960.757 107.014L960.756 107.014L960.622 107.496ZM926.638 14.472L926.936 14.8742L926.638 14.472ZM1011.6 2.952L1011.52 3.44583L1011.53 3.44734L1011.6 2.952ZM1035.5 8.424H1036V8.07748L1035.68 7.95583L1035.5 8.424ZM1035.5 42.696L1035.33 43.1637L1036 43.4196V42.696H1035.5ZM956.879 38.088L956.677 37.6305L956.672 37.6328L956.879 38.088ZM950.831 65.448L950.44 65.7603L950.446 65.768L950.453 65.7755L950.831 65.448ZM962.927 73.224L962.735 73.686L962.745 73.6899L962.754 73.6934L962.927 73.224ZM989.423 81L989.552 80.517L989.547 80.5159L989.423 81ZM1034.06 103.464L1033.69 103.798L1033.69 103.801L1034.06 103.464ZM1027.44 177.768L1027.74 178.169L1027.74 178.167L1027.44 177.768ZM971.279 191.38C946.549 191.38 926.658 188.024 911.577 181.343L911.172 182.257C926.427 189.016 946.472 192.38 971.279 192.38V191.38ZM911.875 181.8V147.528H910.875V181.8H911.875ZM911.189 147.992C919.857 151.459 929.1 154.251 938.917 156.369L939.128 155.391C929.361 153.285 920.172 150.509 911.56 147.064L911.189 147.992ZM938.917 156.369C948.741 158.488 958.28 159.548 967.535 159.548V158.548C958.357 158.548 948.888 157.496 939.128 155.391L938.917 156.369ZM967.535 159.548C981.938 159.548 992.117 158.208 997.986 155.469L997.563 154.563C991.912 157.2 981.931 158.548 967.535 158.548V159.548ZM997.98 155.472C1001.05 154.084 1003.37 151.944 1004.91 149.06C1006.45 146.183 1007.2 142.592 1007.2 138.312H1006.2C1006.2 142.48 1005.47 145.897 1004.03 148.588C1002.6 151.272 1000.45 153.26 997.569 154.56L997.98 155.472ZM1007.2 138.312C1007.2 132.665 1005.84 128.125 1003.06 124.746L1002.28 125.382C1004.88 128.531 1006.2 132.823 1006.2 138.312H1007.2ZM1003.06 124.746C1000.29 121.387 995.783 118.563 989.598 116.244L989.247 117.18C995.35 119.469 999.675 122.213 1002.28 125.382L1003.06 124.746ZM989.611 116.249C983.439 113.742 973.817 110.663 960.757 107.014L960.488 107.978C973.54 111.625 983.118 114.69 989.234 117.175L989.611 116.249ZM960.756 107.014C941.392 101.646 927.863 94.9553 920.084 86.9867L919.369 87.6853C927.334 95.8447 941.069 102.594 960.489 107.978L960.756 107.014ZM920.084 86.9867C912.326 79.0389 908.419 68.0412 908.419 53.928H907.419C907.419 68.2308 911.383 79.5051 919.369 87.6853L920.084 86.9867ZM908.419 53.928C908.419 36.9801 914.597 23.9854 926.936 14.8742L926.341 14.0698C913.72 23.3906 907.419 36.6999 907.419 53.928H908.419ZM926.936 14.8742C939.295 5.74756 957.316 1.14798 981.07 1.14798V0.14798C957.209 0.14798 938.943 4.76442 926.341 14.0698L926.936 14.8742ZM981.07 1.14798C991.799 1.14798 1001.95 1.91431 1011.52 3.44571L1011.68 2.45827C1002.05 0.917679 991.846 0.14798 981.07 0.14798V1.14798ZM1011.53 3.44734C1021.3 4.78856 1029.23 6.60596 1035.33 8.89215L1035.68 7.95583C1029.49 5.63402 1021.48 3.80341 1011.67 2.45663L1011.53 3.44734ZM1035 8.424V42.696H1036V8.424H1035ZM1035.68 42.2283C1019.88 36.2546 1003.4 33.268 986.255 33.268V34.268C1003.28 34.268 1019.64 37.2334 1035.33 43.1637L1035.68 42.2283ZM986.255 33.268C973.177 33.268 963.301 34.708 956.677 37.6305L957.08 38.5454C963.512 35.708 973.22 34.268 986.255 34.268V33.268ZM956.672 37.6328C953.424 39.1091 950.965 41.2128 949.322 43.9507C947.681 46.6855 946.875 50.0196 946.875 53.928H947.875C947.875 50.1564 948.652 47.0105 950.179 44.4652C951.704 41.9232 953.997 39.9469 957.085 38.5432L956.672 37.6328ZM946.875 53.928C946.875 58.807 948.046 62.768 950.44 65.7603L951.221 65.1357C949.007 62.368 947.875 58.649 947.875 53.928H946.875ZM950.453 65.7755C953.021 68.7386 957.133 71.3678 962.735 73.686L963.118 72.762C957.584 70.4722 953.632 67.9174 951.208 65.1205L950.453 65.7755ZM962.754 73.6934C968.539 75.8143 977.39 78.4112 989.298 81.4841L989.547 80.5159C977.647 77.4447 968.835 74.8577 963.099 72.7546L962.754 73.6934ZM989.293 81.483C1010.77 87.2352 1025.53 94.6916 1033.69 103.798L1034.43 103.13C1026.08 93.8044 1011.08 86.2847 989.552 80.517L989.293 81.483ZM1033.69 103.801C1041.85 112.719 1045.95 124.207 1045.95 138.312H1046.95C1046.95 124.001 1042.79 112.257 1034.43 103.126L1033.69 103.801ZM1045.95 138.312C1045.95 154.869 1039.68 167.869 1027.14 177.369L1027.74 178.167C1040.54 168.467 1046.95 155.163 1046.95 138.312H1045.95ZM1027.14 177.367C1014.59 186.683 995.996 191.38 971.279 191.38V192.38C996.097 192.38 1014.94 187.669 1027.74 178.169L1027.14 177.367Z" fill="#FFA800"/>
</svg>
