<svg width="95" height="21" viewBox="0 0 95 21" fill="none" xmlns="http://www.w3.org/2000/svg">
<rect y="1" width="19" height="19" fill="#FFA800"/>
<rect y="10" width="10" height="10" fill="white"/>
<path d="M28.81 8.408H37.594V11H32.194V12.89H36.928V15.518H32.194V17.408H37.594V20H28.81V8.408ZM38.6713 8.408H41.5513L45.9253 14.546V8.408H49.3093V20H46.4113L42.0553 13.88V20H38.6713V8.408ZM50.9233 8.408H59.6353V10.928H54.3073V12.926H58.9513V15.482H54.3073V20H50.9233V8.408ZM66.1005 20.18C64.1445 20.18 62.6685 19.706 61.6725 18.758C60.6765 17.798 60.1785 16.292 60.1785 14.24C60.1785 12.128 60.6705 10.598 61.6545 9.65C62.6505 8.702 64.1325 8.228 66.1005 8.228C68.0685 8.228 69.5445 8.708 70.5285 9.668C71.5245 10.616 72.0225 12.14 72.0225 14.24C72.0225 16.28 71.5245 17.78 70.5285 18.74C69.5325 19.7 68.0565 20.18 66.1005 20.18ZM66.1005 17.3C66.9645 17.3 67.5885 17.06 67.9725 16.58C68.3685 16.088 68.5665 15.308 68.5665 14.24C68.5665 13.112 68.3745 12.308 67.9905 11.828C67.6065 11.348 66.9765 11.108 66.1005 11.108C65.2245 11.108 64.5945 11.348 64.2105 11.828C63.8265 12.308 63.6345 13.112 63.6345 14.24C63.6345 15.308 63.8265 16.088 64.2105 16.58C64.6065 17.06 65.2365 17.3 66.1005 17.3ZM73.2827 8.408H79.3127C80.6807 8.408 81.7127 8.78 82.4087 9.524C83.1047 10.268 83.4527 11.27 83.4527 12.53C83.4527 13.298 83.2607 13.982 82.8767 14.582C82.4927 15.17 81.9707 15.626 81.3107 15.95C81.4427 16.058 81.5567 16.184 81.6527 16.328C81.7487 16.472 81.8567 16.682 81.9767 16.958L83.3087 20H79.7807L78.5567 17.21C78.4607 16.994 78.3407 16.844 78.1967 16.76C78.0647 16.664 77.8727 16.616 77.6207 16.616H76.6667V20H73.2827V8.408ZM78.4487 14.024C78.9407 14.024 79.3187 13.898 79.5827 13.646C79.8587 13.382 79.9967 13.01 79.9967 12.53C79.9967 11.51 79.5167 11 78.5567 11H76.6667V14.024H78.4487ZM88.5064 20.18C87.7144 20.18 86.9704 20.12 86.2744 20C85.5784 19.868 84.9904 19.688 84.5104 19.46V16.67C85.0624 16.922 85.6684 17.126 86.3284 17.282C86.9884 17.438 87.6004 17.516 88.1644 17.516C88.8124 17.516 89.2744 17.462 89.5504 17.354C89.8384 17.234 89.9824 17.006 89.9824 16.67C89.9824 16.454 89.9104 16.28 89.7664 16.148C89.6344 16.004 89.4364 15.884 89.1724 15.788C88.9084 15.68 88.4884 15.536 87.9124 15.356C87.7204 15.308 87.5764 15.266 87.4804 15.23C86.6884 14.978 86.0644 14.702 85.6084 14.402C85.1644 14.102 84.8404 13.742 84.6364 13.322C84.4444 12.89 84.3484 12.356 84.3484 11.72C84.3484 10.58 84.7564 9.716 85.5724 9.128C86.3884 8.528 87.5884 8.228 89.1724 8.228C89.7844 8.228 90.4264 8.282 91.0984 8.39C91.7824 8.486 92.3464 8.606 92.7904 8.75V11.558C91.7344 11.138 90.7084 10.928 89.7124 10.928C89.0764 10.928 88.5964 10.976 88.2724 11.072C87.9604 11.168 87.8044 11.378 87.8044 11.702C87.8044 11.906 87.8704 12.068 88.0024 12.188C88.1344 12.308 88.3324 12.416 88.5964 12.512C88.8724 12.596 89.3344 12.722 89.9824 12.89C90.9064 13.142 91.6144 13.448 92.1064 13.808C92.6104 14.156 92.9584 14.558 93.1504 15.014C93.3424 15.47 93.4384 16.022 93.4384 16.67C93.4384 17.75 93.0184 18.608 92.1784 19.244C91.3504 19.868 90.1264 20.18 88.5064 20.18Z" fill="white"/>
</svg>
