<svg width="880" height="107" viewBox="0 0 880 107" fill="none" xmlns="http://www.w3.org/2000/svg">
<path d="M0.774 0.47H2.43V2H0.774V0.47ZM37.3013 0.47H38.9573V2H37.3013V0.47ZM73.8287 0.47H75.4847V2H73.8287V0.47ZM110.356 0.47H112.012V2H110.356V0.47ZM146.883 0.47H148.539V2H146.883V0.47ZM183.411 0.47H185.067V2H183.411V0.47ZM219.938 0.47H221.594V2H219.938V0.47ZM256.465 0.47H258.121V2H256.465V0.47ZM292.993 0.47H294.649V2H292.993V0.47ZM329.52 0.47H331.176V2H329.52V0.47ZM366.047 0.47H367.703V2H366.047V0.47ZM402.575 0.47H404.231V2H402.575V0.47ZM439.102 0.47H440.758V2H439.102V0.47ZM475.629 0.47H477.285V2H475.629V0.47ZM512.157 0.47H513.813V2H512.157V0.47ZM548.684 0.47H550.34V2H548.684V0.47ZM585.212 0.47H586.868V2H585.212V0.47ZM621.739 0.47H623.395V2H621.739V0.47ZM658.266 0.47H659.922V2H658.266V0.47ZM694.794 0.47H696.45V2H694.794V0.47ZM731.321 0.47H732.977V2H731.321V0.47ZM767.848 0.47H769.504V2H767.848V0.47ZM804.376 0.47H806.032V2H804.376V0.47ZM840.903 0.47H842.559V2H840.903V0.47ZM877.43 0.47H879.086V2H877.43V0.47ZM0.774 35.47H2.43V37H0.774V35.47ZM37.3013 35.47H38.9573V37H37.3013V35.47ZM73.8287 35.47H75.4847V37H73.8287V35.47ZM110.356 35.47H112.012V37H110.356V35.47ZM146.883 35.47H148.539V37H146.883V35.47ZM183.411 35.47H185.067V37H183.411V35.47ZM219.938 35.47H221.594V37H219.938V35.47ZM256.465 35.47H258.121V37H256.465V35.47ZM292.993 35.47H294.649V37H292.993V35.47ZM329.52 35.47H331.176V37H329.52V35.47ZM366.047 35.47H367.703V37H366.047V35.47ZM402.575 35.47H404.231V37H402.575V35.47ZM439.102 35.47H440.758V37H439.102V35.47ZM475.629 35.47H477.285V37H475.629V35.47ZM512.157 35.47H513.813V37H512.157V35.47ZM548.684 35.47H550.34V37H548.684V35.47ZM585.212 35.47H586.868V37H585.212V35.47ZM621.739 35.47H623.395V37H621.739V35.47ZM658.266 35.47H659.922V37H658.266V35.47ZM694.794 35.47H696.45V37H694.794V35.47ZM731.321 35.47H732.977V37H731.321V35.47ZM767.848 35.47H769.504V37H767.848V35.47ZM804.376 35.47H806.032V37H804.376V35.47ZM840.903 35.47H842.559V37H840.903V35.47ZM877.43 35.47H879.086V37H877.43V35.47ZM0.774 70.47H2.43V72H0.774V70.47ZM37.3013 70.47H38.9573V72H37.3013V70.47ZM73.8287 70.47H75.4847V72H73.8287V70.47ZM110.356 70.47H112.012V72H110.356V70.47ZM146.883 70.47H148.539V72H146.883V70.47ZM183.411 70.47H185.067V72H183.411V70.47ZM219.938 70.47H221.594V72H219.938V70.47ZM256.465 70.47H258.121V72H256.465V70.47ZM292.993 70.47H294.649V72H292.993V70.47ZM329.52 70.47H331.176V72H329.52V70.47ZM366.047 70.47H367.703V72H366.047V70.47ZM402.575 70.47H404.231V72H402.575V70.47ZM439.102 70.47H440.758V72H439.102V70.47ZM475.629 70.47H477.285V72H475.629V70.47ZM512.157 70.47H513.813V72H512.157V70.47ZM548.684 70.47H550.34V72H548.684V70.47ZM585.212 70.47H586.868V72H585.212V70.47ZM621.739 70.47H623.395V72H621.739V70.47ZM658.266 70.47H659.922V72H658.266V70.47ZM694.794 70.47H696.45V72H694.794V70.47ZM731.321 70.47H732.977V72H731.321V70.47ZM767.848 70.47H769.504V72H767.848V70.47ZM804.376 70.47H806.032V72H804.376V70.47ZM840.903 70.47H842.559V72H840.903V70.47ZM877.43 70.47H879.086V72H877.43V70.47ZM0.774 105.47H2.43V107H0.774V105.47ZM37.3013 105.47H38.9573V107H37.3013V105.47ZM73.8287 105.47H75.4847V107H73.8287V105.47ZM110.356 105.47H112.012V107H110.356V105.47ZM146.883 105.47H148.539V107H146.883V105.47ZM183.411 105.47H185.067V107H183.411V105.47ZM219.938 105.47H221.594V107H219.938V105.47ZM256.465 105.47H258.121V107H256.465V105.47ZM292.993 105.47H294.649V107H292.993V105.47ZM329.52 105.47H331.176V107H329.52V105.47ZM366.047 105.47H367.703V107H366.047V105.47ZM402.575 105.47H404.231V107H402.575V105.47ZM439.102 105.47H440.758V107H439.102V105.47ZM475.629 105.47H477.285V107H475.629V105.47ZM512.157 105.47H513.813V107H512.157V105.47ZM548.684 105.47H550.34V107H548.684V105.47ZM585.212 105.47H586.868V107H585.212V105.47ZM621.739 105.47H623.395V107H621.739V105.47ZM658.266 105.47H659.922V107H658.266V105.47ZM694.794 105.47H696.45V107H694.794V105.47ZM731.321 105.47H732.977V107H731.321V105.47ZM767.848 105.47H769.504V107H767.848V105.47ZM804.376 105.47H806.032V107H804.376V105.47ZM840.903 105.47H842.559V107H840.903V105.47ZM877.43 105.47H879.086V107H877.43V105.47Z" fill="#2173C0"/>
</svg>
