<svg width="1366" height="1042" viewBox="0 0 1366 1042" fill="none" xmlns="http://www.w3.org/2000/svg">
<text transform="rotate(15.1519)" fill="#2173C0" xml:space="preserve" style="white-space: pre" font-family="Kanit" font-size="18" letter-spacing="0em"><tspan x="216.052" y="-81.2">.     .     .     .     .     .     .     .     .     .     .     .     .     .     .     .     .     .     .     .     .     .     .     .     .     .     .     .     .     .     .     .     .     .     .     .     .&#10;</tspan><tspan x="216.052" y="-46.217">.    </tspan><tspan x="355.5" y="-46.217"> .     .     .     .     .     .     .     .     .</tspan><tspan x="730.652" y="-46.217">     .     .     .     .     .     .     .     .     </tspan><tspan x="1102.59" y="-46.217">    .   </tspan><tspan x="1218.83" y="-46.217">   .    </tspan><tspan x="1285.22" y="-46.217">    .     </tspan><tspan x="1438" y="-46.217">   .     .     .&#10;</tspan><tspan x="216.052" y="-11.234">.     .     .     </tspan><tspan x="401.906" y="-11.234">     .     .     .     .     .     .     .     </tspan><tspan x="737.314" y="-11.234">    .     .     .     .     .     .     </tspan><tspan x="1102.59" y="-11.234">    .     .     .     .     .     .     .     .     .     .     .     .&#10;</tspan><tspan x="216.052" y="23.749">.     .     .     </tspan><tspan x="401.906" y="23.749">     .     .     .    </tspan><tspan x="597.867" y="23.749">   .     .     .     .     .     .     .     .     .     .     .     .     .     .     .     .     .     .     .     .     .     .     .     .     .     .&#10;</tspan><tspan x="216.052" y="58.732">.     .     .     </tspan><tspan x="401.906" y="58.732">     .     .     .    </tspan><tspan x="591.205" y="58.732">    .     .     .     .     .     .     .     .     .     .     .     .     .     .     </tspan><tspan x="1285.22" y="58.732">    .     </tspan><tspan x="1358.28" y="58.732">    .     .     .     .     .&#10;</tspan><tspan x="216.052" y="93.715">.    </tspan><tspan x="451.757" y="93.715">   .     .     .     .     .     .     .     .     .     .     .     .     .     .     .     .     .     .     .     .     .     .    </tspan><tspan x="1291.89" y="93.715">   .    </tspan><tspan x="1358.28" y="93.715">    .     .     .     .     .&#10;</tspan><tspan x="216.052" y="128.698">.    </tspan><tspan x="421.892" y="128.698">  .     .     .     </tspan><tspan x="627.732" y="128.698">    .     .     .     .     .     .     .     .     .     .     .     .     .     .     .     .     .     </tspan><tspan x="1291.89" y="128.698">   .     </tspan><tspan x="1358.28" y="128.698">    .     .     .     .     .&#10;</tspan><tspan x="216.052" y="163.681">.    </tspan><tspan x="677.583" y="163.681">  .     .     .     .     .     .     .     .     .     .     .     .     .     .     .     .    </tspan><tspan x="1291.89" y="163.681">   .     .     .     .     .     .     .&#10;</tspan><tspan x="216.052" y="198.664">.     </tspan><tspan x="664.259" y="198.664">    .     .     .     .     .     .     .     .     .     .     .     .     .    </tspan><tspan x="1168.98" y="198.664">     .     .     .     .     .     .     .     .     .     .&#10;</tspan><tspan x="216.052" y="233.647">.    </tspan><tspan x="714.111" y="233.647">  .     .     .     .     </tspan><tspan x="876.761" y="233.647">     .     .     .     .     .     .     .     .     .     .     .     .     .     .     .     .     .     .&#10;</tspan><tspan x="216.052" y="268.63">.     </tspan><tspan x="342.175" y="268.63">   .     </tspan><tspan x="670.921" y="268.63">   .     .     .     .     .     .     .     .     .     .     .     .     </tspan><tspan x="1218.83" y="268.63">   .     .    </tspan><tspan x="1497.73" y="268.63">     .&#10;</tspan><tspan x="216.052" y="303.613">.     .     .     .     .     .     .     .     .     .     </tspan><tspan x="591.205" y="303.613">    .     .     .     .     .     .     .     .     .     .     .     .     .     .     </tspan><tspan x="1212.17" y="303.613">    .     .     </tspan><tspan x="1321.75" y="303.613">    </tspan><tspan x="1388.14" y="303.613">     </tspan><tspan x="1431.33" y="303.613">    .     .     .&#10;</tspan><tspan x="216.052" y="338.596">.     </tspan><tspan x="481.623" y="338.596">    .     .     .     .     .     .     </tspan><tspan x="773.841" y="338.596">    </tspan><tspan x="876.761" y="338.596">     .     .     </tspan><tspan x="1029.53" y="338.596">    .     .     .     .     .     .     .     .     .     .     </tspan><tspan x="1431.33" y="338.596">    .     .     .&#10;</tspan><tspan x="216.052" y="373.579">.    </tspan><tspan x="494.947" y="373.579">  .     .     .     .     .     .     </tspan><tspan x="767.179" y="373.579">     </tspan><tspan x="883.423" y="373.579">    .     .     .     </tspan><tspan x="1022.87" y="373.579">     .     .     .     .     .     .     .     .     .     .     .     .     .     .&#10;</tspan><tspan x="216.052" y="408.562">.     .     .     .     .     .     .     .     .     .     .     .     .     .     .     .     </tspan><tspan x="883.423" y="408.562">    .     .     .     .     </tspan><tspan x="1066.06" y="408.562">    .     .     .     .     .     .     .     .     .     .     .     .     .&#10;</tspan><tspan x="216.052" y="443.545">&#10;</tspan><tspan x="216.052" y="478.528">.     .     .     </tspan><tspan x="401.906" y="478.528">     .     .     .    </tspan><tspan x="591.205" y="478.528">    .     .     .     .     .     .     .     .     .     .     .     .     .     .     </tspan><tspan x="1285.22" y="478.528">    .     </tspan><tspan x="1358.28" y="478.528">    .     .     .     .     .&#10;</tspan><tspan x="216.052" y="513.511">.    </tspan><tspan x="451.757" y="513.511">   .     .     .     .     .     .     .     .     .     .     .     .     .     .     .     .     .     .     .     .     .     .    </tspan><tspan x="1291.89" y="513.511">   .    </tspan><tspan x="1358.28" y="513.511">    .     .     .     .     .&#10;</tspan><tspan x="216.052" y="548.494">.     .     .     .     .     .     .     .     .     .     </tspan><tspan x="591.205" y="548.494">    .     .     .     .     .     .     .     .     .     .     .     .     .     .     </tspan><tspan x="1212.17" y="548.494">    .     .     </tspan><tspan x="1321.75" y="548.494">    </tspan><tspan x="1388.14" y="548.494">     </tspan><tspan x="1431.33" y="548.494">    .     .     .&#10;</tspan><tspan x="216.052" y="583.477">.     </tspan><tspan x="481.623" y="583.477">    .     .     .     .     .     .     </tspan><tspan x="773.841" y="583.477">    </tspan><tspan x="876.761" y="583.477">     .     .     </tspan><tspan x="1029.53" y="583.477">    .     .     .     .     .     .     .     .     .     .     </tspan><tspan x="1431.33" y="583.477">    .     .     .&#10;</tspan><tspan x="216.052" y="618.46">.     .     .     .     .     .     .     .     .     .     .     .     .     .     .     .     </tspan><tspan x="883.423" y="618.46">    .     .     .     .     </tspan><tspan x="1066.06" y="618.46">    .     .     .     .     .     .     .     .     .     .     .     .     .&#10;</tspan><tspan x="216.052" y="653.443">.     .     .     .     .     .     .     .     .     .     .     .     .     .     .     .     .     .     .     .     .     .     .     .     .     .     .     .     .     .     .     .     .     .     .     .     .&#10;</tspan><tspan x="216.052" y="688.426">.    </tspan><tspan x="355.5" y="688.426"> .     .     .     .     .     .     .     .     .</tspan><tspan x="730.652" y="688.426">     .     .     .     .     .     .     .     .     </tspan><tspan x="1102.59" y="688.426">    .   </tspan><tspan x="1218.83" y="688.426">   .    </tspan><tspan x="1285.22" y="688.426">    .     </tspan><tspan x="1438" y="688.426">   .     .     .&#10;</tspan><tspan x="216.052" y="723.409">.     .     .     </tspan><tspan x="401.906" y="723.409">     .     .     .     .     .     .     .     </tspan><tspan x="737.314" y="723.409">    .     .     .     .     .     .     </tspan><tspan x="1102.59" y="723.409">    .     .     .     .     .     .     .     .     .     .     .     .&#10;</tspan><tspan x="216.052" y="758.392">.     .     .     </tspan><tspan x="401.906" y="758.392">     .     .     .    </tspan><tspan x="597.867" y="758.392">   .     .     .     .     .     .     .     .     .     .     .     .     .     .     .     .     .     .     .     .     .     .     .     .     .     .&#10;</tspan><tspan x="216.052" y="793.375">.     .     .     </tspan><tspan x="401.906" y="793.375">     .     .     .    </tspan><tspan x="591.205" y="793.375">    .     .     .     .     .     .     .     .     .     .     .     .     .     .     </tspan><tspan x="1285.22" y="793.375">    .     </tspan><tspan x="1358.28" y="793.375">    .     .     .     .     .&#10;</tspan><tspan x="216.052" y="828.358">.    </tspan><tspan x="451.757" y="828.358">   .     .     .     .     .     .     .     .     .     .     .     .     .     .     .     .     .     .     .     .     .     .    </tspan><tspan x="1291.89" y="828.358">   .    </tspan><tspan x="1358.28" y="828.358">    .     .     .     .     .&#10;</tspan><tspan x="216.052" y="863.341">.    </tspan><tspan x="421.892" y="863.341">  .     .     .     </tspan><tspan x="627.732" y="863.341">    .     .     .     .     .     .     .     .     .     .     .     .     .     .     .     .     .     </tspan><tspan x="1291.89" y="863.341">   .     </tspan><tspan x="1358.28" y="863.341">    .     .     .     .     .&#10;</tspan></text>
<text transform="rotate(15.1519)" fill="black" xml:space="preserve" style="white-space: pre" font-family="Kanit" font-size="18" letter-spacing="0em"><tspan x="245.917" y="-46.217"> .     .     .    </tspan><tspan x="1056.18" y="-46.217">.     . </tspan><tspan x="1152.44" y="-46.217">  .     .  </tspan><tspan x="1268.68" y="-46.217"> . </tspan><tspan x="1348.4" y="-46.217">.     .     .  </tspan><tspan x="538.136" y="23.749"> .     .  </tspan><tspan x="538.136" y="58.732"> .     . </tspan><tspan x="1129.24" y="58.732">.     .     .     .     . </tspan><tspan x="245.917" y="93.715"> .     .     .     .     .     .  </tspan><tspan x="1268.68" y="93.715"> .  </tspan><tspan x="245.917" y="128.698"> .     .     .     .     .   </tspan><tspan x="1275.35" y="128.698">.  </tspan><tspan x="245.917" y="163.681"> .     .     .     .     .     .     .     .     .     .     .     .   </tspan><tspan x="1268.68" y="163.681"> .  </tspan><tspan x="252.58" y="198.664">.     .     .     .     .     .     .     .     .     .     .     . </tspan><tspan x="245.917" y="233.647"> .     .     .     .     .     .     .     .     .     .     .     .     .   </tspan><tspan x="252.58" y="268.63">.     .     .  </tspan><tspan x="398.689" y="268.63">.     .     .     .     .     .     .     .  </tspan><tspan x="1129.24" y="268.63">.     .     .  </tspan><tspan x="1129.24" y="303.613">.     .     . </tspan><tspan x="474.96" y="338.596"> </tspan><tspan x="727.435" y="338.596">.     . </tspan><tspan x="245.917" y="373.579"> .     .     .     .     .     .     .   </tspan><tspan x="727.435" y="373.579">.     .</tspan><tspan x="538.136" y="478.528"> .     . </tspan><tspan x="1129.24" y="478.528">.     .     .     .     . </tspan><tspan x="245.917" y="513.511"> .     .     .     .     .     .  </tspan><tspan x="1268.68" y="513.511"> .  </tspan><tspan x="1129.24" y="548.494">.     .     . </tspan><tspan x="474.96" y="583.477"> </tspan><tspan x="727.435" y="583.477">.     . </tspan><tspan x="245.917" y="688.426"> .     .     .    </tspan><tspan x="1056.18" y="688.426">.     . </tspan><tspan x="1152.44" y="688.426">  .     .  </tspan><tspan x="1268.68" y="688.426"> . </tspan><tspan x="1348.4" y="688.426">.     .     .  </tspan><tspan x="538.136" y="758.392"> .     .  </tspan><tspan x="538.136" y="793.375"> .     . </tspan><tspan x="1129.24" y="793.375">.     .     .     .     . </tspan><tspan x="245.917" y="828.358"> .     .     .     .     .     .  </tspan><tspan x="1268.68" y="828.358"> .  </tspan><tspan x="245.917" y="863.341"> .     .     .     .     .   </tspan><tspan x="1275.35" y="863.341">.  </tspan></text>
<text transform="rotate(15.1519)" fill="#2173C0" xml:space="preserve" style="white-space: pre" font-family="Kanit" font-size="18" letter-spacing="0em"><tspan x="690.908" y="-46.217">. </tspan><tspan x="325.634" y="-11.234">.     . </tspan><tspan x="690.908" y="-11.234">.     .</tspan><tspan x="325.634" y="23.749">. </tspan><tspan x="355.5" y="23.749"> . </tspan><tspan x="398.689" y="23.749">.</tspan><tspan x="325.634" y="58.732">.     .     .</tspan><tspan x="544.798" y="128.698">.     .</tspan><tspan x="1311.87" y="268.63">.     .     .     .     . </tspan><tspan x="252.58" y="338.596">.     .     .     .     .     .     .</tspan><tspan x="325.634" y="478.528">.     .     .</tspan><tspan x="252.58" y="583.477">.     .     .     .     .     .     .</tspan><tspan x="690.908" y="688.426">. </tspan><tspan x="325.634" y="723.409">.     . </tspan><tspan x="690.908" y="723.409">.     .</tspan><tspan x="325.634" y="758.392">. </tspan><tspan x="355.5" y="758.392"> . </tspan><tspan x="398.689" y="758.392">.</tspan><tspan x="325.634" y="793.375">.     .     .</tspan><tspan x="544.798" y="863.341">.     .</tspan></text>
<text transform="rotate(15.1519)" fill="white" xml:space="preserve" style="white-space: pre" font-family="Kanit" font-size="18" letter-spacing="0em"><tspan x="657.597" y="-46.217">     </tspan><tspan x="700.787" y="-46.217">    .</tspan><tspan x="372.041" y="-11.234">    .</tspan><tspan x="730.652" y="-11.234"> </tspan><tspan x="983.126" y="-11.234">.     .     .     . </tspan><tspan x="335.513" y="23.749">   </tspan><tspan x="372.041" y="23.749">    </tspan><tspan x="1348.4" y="58.732">. </tspan><tspan x="1341.74" y="93.715"> . </tspan><tspan x="584.542" y="128.698">     . </tspan><tspan x="1348.4" y="128.698">. </tspan><tspan x="1159.1" y="198.664"> .</tspan><tspan x="873.544" y="233.647">.</tspan><tspan x="1305.21" y="268.63"> </tspan><tspan x="1467.86" y="268.63">    .</tspan><tspan x="581.326" y="303.613">. </tspan><tspan x="1311.87" y="303.613">. </tspan><tspan x="1348.4" y="303.613">.     .</tspan><tspan x="1421.45" y="303.613">. </tspan><tspan x="800.49" y="338.596">.     .     .</tspan><tspan x="983.126" y="338.596">.     . </tspan><tspan x="1421.45" y="338.596">. </tspan><tspan x="800.49" y="373.579">.     .     . </tspan><tspan x="1019.65" y="373.579">.</tspan><tspan x="800.49" y="408.562">.     .     . </tspan><tspan x="1056.18" y="408.562">. </tspan><tspan x="1348.4" y="478.528">. </tspan><tspan x="1341.74" y="513.511"> . </tspan><tspan x="581.326" y="548.494">. </tspan><tspan x="1311.87" y="548.494">. </tspan><tspan x="1348.4" y="548.494">.     .</tspan><tspan x="1421.45" y="548.494">. </tspan><tspan x="800.49" y="583.477">.     .     .</tspan><tspan x="983.126" y="583.477">.     . </tspan><tspan x="1421.45" y="583.477">. </tspan><tspan x="800.49" y="618.46">.     .     . </tspan><tspan x="1056.18" y="618.46">. </tspan><tspan x="657.597" y="688.426">     </tspan><tspan x="700.787" y="688.426">    .</tspan><tspan x="372.041" y="723.409">    .</tspan><tspan x="730.652" y="723.409"> </tspan><tspan x="983.126" y="723.409">.     .     .     . </tspan><tspan x="335.513" y="758.392">   </tspan><tspan x="372.041" y="758.392">    </tspan><tspan x="1348.4" y="793.375">. </tspan><tspan x="1341.74" y="828.358"> . </tspan><tspan x="584.542" y="863.341">     . </tspan><tspan x="1348.4" y="863.341">. </tspan></text>
</svg>
